# xmcd
#
# Track frame offsets: 
#        151
#        11901
#        21736
#        34782
#        44750
#        55476
#        74921
#        84301
#        96113
#        106058
#        118600
#        131820
#        142549
#        155504
#        166514
#
# Disc length: 2449 seconds
#
# Revision: 2
# Processed by: cddbd v1.5.2PL0 Copyright (c) Steve Scherf et al.
# Submitted via: ExactAudioCopyFreeDBPlugin 1.0
#
DISCID=ce098f0f
DTITLE=Various Artist - Best of the 50s and 60s__cd1
DYEAR=2003
DGENRE=Oldies
TTITLE0=Pat Boone - Speedy Gonzales
TTITLE1=The Marcels - Blue Moon
TTITLE2=The Crests - 16 Candles
TTITLE3=Bill Haley - Rock Around the Clock
TTITLE4=The Teddybears - To Know Him Is To Love Him
TTITLE5=Trini Lopez - La Bamba
TTITLE6=The Diamonds - Little Darlin
TTITLE7=The Platters - Only You
TTITLE8=The Champs - Tequila
TTITLE9=The Tremeloes - Here Comes My Baby
TTITLE10=Gene Pitney - Twenty Four Hours From Tulsa
TTITLE11=Little Richard - Tutti Frutti
TTITLE12=John Fred and His Playboy Band - Judy In The Disquise
TTITLE13=Ben E.King and The Drifters - Spanish Harlem
TTITLE14=Tirini Lopez - This Land Is Your Land
EXTD=
EXTT0=
EXTT1=
EXTT2=
EXTT3=
EXTT4=
EXTT5=
EXTT6=
EXTT7=
EXTT8=
EXTT9=
EXTT10=
EXTT11=
EXTT12=
EXTT13=
EXTT14=
PLAYORDER=
